<?xml version="1.0" encoding="UTF-8" standalone="no"?>
<!-- Created with Inkscape (http://www.inkscape.org/) -->

<svg
   xmlns:dc="http://purl.org/dc/elements/1.1/"
   xmlns:cc="http://creativecommons.org/ns#"
   xmlns:rdf="http://www.w3.org/1999/02/22-rdf-syntax-ns#"
   xmlns:svg="http://www.w3.org/2000/svg"
   xmlns="http://www.w3.org/2000/svg"
   xmlns:sodipodi="http://sodipodi.sourceforge.net/DTD/sodipodi-0.dtd"
   xmlns:inkscape="http://www.inkscape.org/namespaces/inkscape"
   width="1052.3622"
   height="744.09448"
   id="svg2"
   version="1.1"
   inkscape:version="0.48.1 "
   enable-background="new"
   sodipodi:docname="Logga alternativ 2.svg"
   inkscape:export-filename="C:\Users\Oskar Klintrot\Documents\My Dropbox\Logga till Kalmar Klätterklubb\Logga alternativ 6.png"
   inkscape:export-xdpi="90"
   inkscape:export-ydpi="90">
  <defs
     id="defs4" />
  <sodipodi:namedview
     id="base"
     pagecolor="#ffffff"
     bordercolor="#666666"
     borderopacity="1.0"
     inkscape:pageopacity="0.0"
     inkscape:pageshadow="2"
     inkscape:zoom="0.7"
     inkscape:cx="568.55337"
     inkscape:cy="409.07957"
     inkscape:document-units="px"
     inkscape:current-layer="layer2"
     showgrid="false"
     inkscape:window-width="1440"
     inkscape:window-height="838"
     inkscape:window-x="-8"
     inkscape:window-y="-8"
     inkscape:window-maximized="1" />
  <metadata
     id="metadata7">
    <rdf:RDF>
      <cc:Work
         rdf:about="">
        <dc:format>image/svg+xml</dc:format>
        <dc:type
           rdf:resource="http://purl.org/dc/dcmitype/StillImage" />
        <dc:title></dc:title>
      </cc:Work>
    </rdf:RDF>
  </metadata>
  <g
     inkscape:label="Layer 1"
     inkscape:groupmode="layer"
     id="layer1"
     transform="translate(0,-308.2677)"
     style="display:inline;opacity:1">
    <flowRoot
       xml:space="preserve"
       id="flowRoot3018"
       style="font-size:40px;font-style:normal;font-weight:normal;line-height:125%;letter-spacing:0px;word-spacing:0px;fill:#000000;fill-opacity:1;stroke:none;font-family:Sans"
       transform="translate(0,308.2677)"><flowRegion
         id="flowRegion3020"><rect
           id="rect3022"
           width="2.8571429"
           height="74.285713"
           x="585.71429"
           y="186.95163" /></flowRegion><flowPara
         id="flowPara3024" /></flowRoot>    <path
       sodipodi:type="star"
       style="fill:#000000;fill-opacity:0.17777776;fill-rule:evenodd;stroke:none;display:inline"
       id="path4006"
       sodipodi:sides="5"
       sodipodi:cx="-378.57144"
       sodipodi:cy="38.380196"
       sodipodi:r1="203.19891"
       sodipodi:r2="101.59945"
       sodipodi:arg1="1.088283"
       sodipodi:arg2="1.7166016"
       inkscape:flatsided="true"
       inkscape:rounded="0"
       inkscape:randomized="0.176"
       d="M -277.88458,236.04106 -546.16432,161.94317 -580.51918,-62.906395 -372.00353,-174.01196 -213.48777,20.526554 z"
       inkscape:transform-center-x="-7.7864879"
       inkscape:transform-center-y="-45.51764"
       transform="matrix(-1.6303416,-0.41466181,-0.37782009,1.4854897,-69.855425,483.58811)" />
  </g>
  <g
     inkscape:groupmode="layer"
     id="layer2"
     inkscape:label="Lager"
     style="display:inline;opacity:1">
    <text
       xml:space="preserve"
       style="font-size:120.91186523px;font-style:normal;font-variant:normal;font-weight:normal;font-stretch:normal;text-align:center;line-height:64.99999762%;letter-spacing:0px;word-spacing:0px;text-anchor:middle;fill:#000000;fill-opacity:1;stroke:none;font-family:Goudy Old Style;-inkscape-font-specification:Goudy Old Style"
       x="525.14716"
       y="569.32361"
       id="text3004"
       sodipodi:linespacing="64.999998%"
       transform="scale(1.0203939,0.98001369)"><tspan
         sodipodi:role="line"
         id="tspan3006"
         x="525.14716"
         y="569.32361"
         style="font-size:229.73254395px;font-style:normal;font-variant:normal;font-weight:normal;font-stretch:normal;text-align:center;line-height:64.99999762%;text-anchor:middle;baseline-shift:baseline;font-family:Goudy Old Style;-inkscape-font-specification:Goudy Old Style">KALMAR</tspan><tspan
         sodipodi:role="line"
         x="525.14716"
         y="665.97345"
         id="tspan3008"
         style="font-style:normal;font-variant:normal;font-weight:normal;font-stretch:normal;line-height:64.99999762%;font-family:Goudy Old Style;-inkscape-font-specification:Goudy Old Style">KLÄTTERKLUBB</tspan></text>
    <path
       style="fill:#000000;fill-opacity:0.39215686;stroke:none"
       d="m 542.37907,176.87991 c -4.15628,-0.7575 -5.07181,-2.05324 -3.25727,-4.60996 1.78682,-2.51772 6.9787,-12.97457 7.68707,-15.48241 1.27129,-4.50078 1.65332,-9.99062 1.13332,-16.28673 -0.26468,-3.20468 -0.36737,-10.37026 -0.22821,-15.92349 0.13919,-5.55325 0.13844,-10.53507 -0.002,-11.07072 -0.1844,-0.70515 -0.62746,-0.97389 -1.60558,-0.97389 -1.02385,0 -1.5745,-0.36675 -2.27456,-1.51494 -0.50803,-0.83322 -0.92445,-1.88201 -0.92543,-2.33068 -0.002,-1.15809 -1.35244,-1.01783 -3.36481,0.34961 -0.94322,0.64094 -2.05113,1.16534 -2.46203,1.16534 -0.41089,0 -1.3135,0.2874 -2.00581,0.63867 -0.69228,0.35128 -2.30751,0.78422 -3.58939,0.96212 -1.28187,0.17791 -2.99859,0.55693 -3.81493,0.84228 -1.08123,0.37795 -1.65225,0.3794 -2.10298,0.004 -0.45387,-0.37667 -1.94634,-0.30845 -5.60109,0.25604 l -4.98236,0.76954 -0.71907,1.6425 c -0.39546,0.90336 -1.43712,4.15962 -2.31479,7.2361 -1.86586,6.5403 -2.92519,9.1446 -5.40387,13.28485 -2.3394,3.90764 -6.62207,14.61621 -7.92434,19.81439 l -1.01569,4.05426 1.23426,2.75027 c 0.85881,1.91371 1.19064,3.3524 1.09096,4.72998 -0.12503,1.72855 -0.35028,2.08744 -1.77475,2.8285 -1.36246,0.70882 -2.40007,0.81235 -6.29282,0.62792 -2.56374,-0.12153 -5.26323,-0.45531 -5.99886,-0.74184 -0.73562,-0.28655 -4.48886,-0.73259 -8.34051,-0.99119 -3.85167,-0.2586 -7.18281,-0.5813 -7.40253,-0.71709 -0.64001,-0.39554 -0.46057,-4.78145 0.25198,-6.15936 1.05094,-2.03229 2.18281,-2.70038 5.59551,-3.30272 3.7975,-0.67028 5.33351,-1.40104 8.28035,-3.9394 1.74547,-1.50351 2.70502,-2.97457 4.74397,-7.27282 3.14185,-6.62328 3.80281,-8.71706 4.71741,-14.94385 0.40277,-2.7421 1.5675,-7.41037 2.64867,-10.61579 1.06136,-3.14675 1.79632,-5.85482 1.63324,-6.01791 -0.16309,-0.16309 -1.10883,-0.0531 -2.10162,0.2443 -4.11286,1.2323 -6.12502,0.47402 -6.12502,-2.30825 0,-1.46081 0.30607,-2.19006 1.36256,-3.24655 1.20541,-1.20542 1.68748,-1.36256 4.1801,-1.36256 l 2.81758,0 1.81685,-2.44719 c 0.99926,-1.34597 3.96165,-6.19657 6.58311,-10.779106 6.50941,-11.37909 6.31846,-11.09231 8.2665,-12.41528 2.29669,-1.55976 5.73722,-5.82702 5.74208,-7.12185 0.002,-0.56723 1.57207,-3.12894 3.48879,-5.69269 1.91671,-2.56374 4.57709,-6.84331 5.91197,-9.51015 4.04737,-8.085953 7.27922,-11.339506 12.76418,-12.84986 1.52318,-0.419417 4.29017,-1.297267 6.14889,-1.950767 l 3.37948,-1.188152 0,-1.830536 c 0,-1.110626 -0.55412,-2.928247 -1.40894,-4.621665 -4.05068,-8.024348 -4.4932,-21.251167 -0.81979,-24.503602 1.74154,-1.541969 7.4971,-3.910157 9.491,-3.905179 2.15966,0.0043 6.08203,1.743457 7.47549,3.31256 0.54275,0.611138 1.74887,1.696934 2.68028,2.412905 1.98485,1.525719 2.23164,3.162331 0.64469,4.275494 -0.9477,0.664771 -1.05111,1.127959 -1.07257,4.804325 -0.0209,3.565524 -0.24351,4.637589 -1.80068,8.669912 -1.43657,3.720043 -1.6552,4.678394 -1.14155,5.003803 0.34943,0.221401 3.3622,0.406838 6.69507,0.412125 4.97659,0.0077 6.27769,0.154967 7.27893,0.822876 0.67056,0.4473 2.03399,1.362292 3.02989,2.033323 2.48317,1.673179 5.06512,4.857958 9.44996,11.656289 2.04653,3.172989 4.83575,7.088939 6.19822,8.702119 3.74972,4.43968 5.03302,6.89974 5.03529,9.65258 8.6e-4,1.95787 -1.34971,11.63445 -2.08914,14.95992 -0.19295,0.8677 -4.88292,4.38468 -5.8471,4.38468 -0.20794,0 -1.97704,0.64027 -3.93136,1.42282 -2.07257,0.8299 -3.93217,1.30257 -4.46244,1.13426 -1.23882,-0.39318 -1.68473,-2.43339 -0.85496,-3.91172 0.65849,-1.17317 1.2066,-1.53234 4.83367,-3.16739 1.65097,-0.74425 1.90095,-1.07434 2.22353,-2.93612 0.1999,-1.1537 0.41166,-4.3673 0.47058,-7.14139 l 0.1072,-5.04377 -1.5036,-1.34889 -1.50363,-1.3489 -1.99238,0.76113 c -1.09582,0.4186 -3.35585,0.88307 -5.02227,1.03212 l -3.02989,0.27099 0.14666,3.02987 c 0.32532,6.72264 1.9114,15.54843 3.56018,19.81074 0.89254,2.30737 1.62978,4.66291 1.63829,5.23455 0.0201,1.350116 -2.4234,2.599966 -6.59123,3.371386 -2.61785,0.48454 -3.4671,0.89832 -5.36055,2.61175 l -2.24988,2.03599 -4.07868,0.0156 c -3.48501,0.0137 -4.21592,-0.12169 -5.02153,-0.92725 -0.66848,-0.66849 -0.99773,-0.77022 -1.1315,-0.34962 -0.1037,0.32628 -0.29243,4.15919 -0.41923,8.51754 -0.24135,8.29471 -1.87865,23.20252 -3.82103,34.79048 -1.35905,8.10801 -1.39309,9.21506 -0.33978,11.05033 0.75781,1.32043 0.75829,1.45073 0.008,2.2795 -0.57328,0.63347 -0.91818,2.29196 -1.2347,5.93717 -0.48675,5.60569 -1.19404,7.14896 -3.57104,7.7918 -2.21076,0.5979 -8.18456,0.82529 -10.51627,0.40032 z M 489.2995,167.2537 c 0,-0.10082 -0.31463,-0.18321 -0.69919,-0.18321 -0.38458,0 -0.69922,0.20318 -0.69922,0.45151 0,0.24833 0.31464,0.33077 0.69922,0.18321 0.38456,-0.14758 0.69919,-0.35076 0.69919,-0.45151 z m 67.3013,-20.01815 c 0.15918,-0.41482 0.081,-0.60193 -0.1832,-0.43862 -0.25344,0.15663 -0.46079,0.48216 -0.46079,0.72341 0,0.6705 0.3341,0.52275 0.64399,-0.28479 z m -0.16249,-11.16302 c 0.63255,-0.86235 0.62265,-0.8843 -0.13188,-0.29254 -0.44866,0.35186 -0.81573,0.85879 -0.81573,1.12651 0,0.26769 0.0594,0.39934 0.13188,0.29251 0.0725,-0.10675 0.43962,-0.61373 0.81575,-1.12648 z m -5.10338,-1.84124 c 0.79106,-0.82104 0.43446,-1.1862 -0.43305,-0.44342 -0.60071,0.51435 -0.78045,1.1098 -0.59664,1.97651 l 0.2631,1.24042 0.16995,-1.16534 c 0.0935,-0.64093 0.36196,-1.36461 0.59664,-1.60817 z m -1.62239,-1.52853 c -0.15489,-0.15489 -0.26506,0.12046 -0.24483,0.61181 0.0224,0.54301 0.13279,0.65346 0.28162,0.28161 0.13463,-0.33649 0.11818,-0.73853 -0.0367,-0.89342 z m 1.4381,-5.60333 c -0.11726,-0.44866 -0.21319,-0.0816 -0.21319,0.81573 0,0.89732 0.096,1.26439 0.21319,0.81573 0.11727,-0.44864 0.11727,-1.1828 0,-1.63146 z m -1.41102,-3.96215 c -0.12929,-0.32048 -0.23511,-0.0583 -0.23511,0.58267 0,0.64093 0.10584,0.90313 0.23511,0.58268 0.12929,-0.32049 0.12929,-0.84489 0,-1.16535 z m -10.01015,-19.77955 c -0.33648,-0.13462 -0.73852,-0.11803 -0.89341,0.0367 -0.1549,0.1549 0.12045,0.26506 0.6118,0.24484 0.54302,-0.0223 0.65346,-0.1328 0.28161,-0.28163 z m 3.07269,-10.077066 c 1.35348,-2.87101 2.45472,-5.58528 2.44722,-6.03167 -0.0172,-1.02079 -2.63095,-6.98698 -4.11195,-9.38599 l -1.11563,-1.80719 -2.65059,2.62294 c -2.35325,2.32868 -2.8649,2.62292 -4.56106,2.62292 -1.12955,0 -2.14769,-0.28581 -2.49077,-0.6992 -0.31916,-0.38455 -0.83261,-0.69922 -1.14102,-0.69922 -0.98773,0 -5.20229,5.69208 -7.4205,10.02191 -1.18205,2.30737 -2.70284,4.87694 -3.37947,5.71016 l -1.23027,1.51494 9.73204,0.021 c 7.22618,0.0156 10.0921,0.18591 11.13044,0.66134 0.76914,0.35217 1.60817,0.64657 1.86455,0.65421 0.25638,0.008 1.57353,-2.33513 2.92701,-5.20617 z m 35.83485,-11.26455 c -0.29634,-0.63255 -0.61107,-0.94015 -0.69939,-0.68353 -0.0883,0.25659 0.0947,0.77415 0.40666,1.15008 0.81831,0.98601 0.90702,0.84463 0.29273,-0.46655 z m 15.70371,-13.55326 c -0.15183,-0.39562 -0.376,-0.61933 -0.49818,-0.49715 -0.12213,0.12214 -0.0839,0.44589 0.085,0.71932 0.45963,0.74369 0.72827,0.59923 0.41309,-0.22217 z M 573.08726,43.223419 c -0.44866,-0.117256 -1.18281,-0.117256 -1.63147,0 -0.44865,0.117265 -0.0816,0.213173 0.81574,0.213173 0.89731,0 1.26439,-0.09594 0.81573,-0.213173 z m 0,-1.398402 c -0.44866,-0.117265 -1.18281,-0.117265 -1.63147,0 -0.44865,0.117265 -0.0816,0.213173 0.81574,0.213173 0.89731,0 1.26439,-0.09594 0.81573,-0.213173 z m 3.72909,0 c -0.44866,-0.117265 -1.18283,-0.117265 -1.63148,0 -0.44866,0.117265 -0.0816,0.213173 0.81573,0.213173 0.89731,0 1.2644,-0.09594 0.81575,-0.213173 z"
       id="path3097"
       inkscape:connector-curvature="0" />
    <path
       style="fill:#000000;fill-opacity:0.39215686"
       d="m 189.74519,647.78869 c -52.30354,-1.72956 -51.53166,-1.69225 -55.65112,-2.69014 -2.44107,-0.59131 -6.64104,-2.55218 -9.00262,-4.20299 -2.75419,-1.92535 -14.33312,-11.65952 -18.84958,-15.84643 -8.142746,-7.54871 -9.865056,-9.82389 -10.206766,-13.48298 -0.35016,-3.74978 0.9069,-5.62822 5.128866,-7.66397 3.78932,-1.82714 5.97796,-2.26113 16.92626,-3.35637 5.43056,-0.54324 13.93611,-1.42201 18.90117,-1.95285 10.90131,-1.16545 15.81094,-1.61929 27.50531,-2.54248 3.02559,-0.23886 6.45319,-0.5579 7.61688,-0.70907 9.12792,-1.1853 38.30855,-4.19013 46.54746,-4.79312 2.40496,-0.17598 5.68821,-0.51776 7.29615,-0.75946 6.69226,-1.006 8.96967,-0.20619 25.00496,8.7827 12.45111,6.9796 19.46423,10.88545 27.36427,15.2399 10.36738,5.71451 10.16363,5.44506 9.94554,13.14979 -0.0892,3.14671 -0.27951,5.49637 -0.47502,5.8617 -0.74527,1.39262 -4.21845,2.87149 -10.00926,4.26193 -34.29501,8.23487 -61.75337,11.57312 -88.0425,10.70384 z m -5.57158,-2.42812 c -0.27154,-0.0709 -0.71584,-0.0709 -0.98738,0 -0.27152,0.0708 -0.0493,0.12898 0.49369,0.12898 0.54305,0 0.76523,-0.0581 0.49369,-0.12898 z m 24.82532,0 c -0.27154,-0.0709 -0.71584,-0.0709 -0.98738,0 -0.27154,0.0708 -0.0493,0.12898 0.49369,0.12898 0.54303,0 0.7652,-0.0581 0.49369,-0.12898 z m 2.25683,0 c -0.27151,-0.0709 -0.71584,-0.0709 -0.98736,0 -0.27154,0.0708 -0.0493,0.12898 0.49369,0.12898 0.54306,0 0.76521,-0.0581 0.49367,-0.12898 z m -44.19275,-0.59199 c -1.14865,-0.0475 -2.19023,0.0159 -2.31463,0.13829 -0.12444,0.12376 0.81542,0.16259 2.08846,0.0863 l 2.31463,-0.13829 z m 53.71381,0.22231 c -0.0958,-0.1551 -0.51594,-0.26709 -0.93347,-0.2487 l -0.75917,0.0332 0.84635,0.21527 c 0.46546,0.11853 0.88555,0.23034 0.93349,0.24876 0.0481,0.0182 0.009,-0.0938 -0.0872,-0.24876 z m -61.358,-0.27043 c -1.86054,-0.11263 -2.3781,-0.21186 -1.69264,-0.32397 0.86499,-0.14147 0.80583,-0.16736 -0.47702,-0.20687 -1.37112,-0.0422 -2.00049,0.20437 -1.58408,0.62076 0.0992,0.0992 1.58739,0.15601 3.30708,0.12649 l 3.12666,-0.054 -2.68,-0.16236 z m 11.92284,0.072 c -0.34698,-0.067 -0.9817,-0.0688 -1.41052,-0.005 -0.42881,0.0649 -0.14487,0.11967 0.63085,0.12172 0.77581,0.005 1.12664,-0.0511 0.77967,-0.11786 z m 22.98776,-0.0114 c -0.89215,-0.0559 -2.35205,-0.0559 -3.24424,0 -0.89212,0.0559 -0.16214,0.10196 1.62213,0.10196 1.78431,0 2.51427,-0.0459 1.62211,-0.10196 z m 10.72001,0 c -1.20247,-0.0529 -3.17015,-0.0529 -4.37264,0 -1.20247,0.0529 -0.21867,0.0963 2.18633,0.0963 2.40494,0 3.3888,-0.0431 2.18631,-0.0963 z m 17.20313,0.0159 c -0.27452,-0.0715 -0.65535,-0.0668 -0.84632,0.0113 -0.19098,0.0772 0.0336,0.13579 0.49902,0.13012 0.46549,-0.005 0.62174,-0.0688 0.3473,-0.14034 z m -70.09796,-0.2735 c -0.19393,-0.0781 -0.51134,-0.0781 -0.70529,0 -0.19392,0.0781 -0.0352,0.14238 0.35263,0.14238 0.3879,0 0.5466,-0.064 0.35266,-0.14238 z m 11.84842,0 c -0.19392,-0.0781 -0.51131,-0.0781 -0.70526,0 -0.19392,0.0781 -0.0354,0.14238 0.35266,0.14238 0.38787,0 0.54657,-0.064 0.3526,-0.14238 z m 20.17059,-0.007 c -0.27154,-0.0709 -0.71584,-0.0709 -0.98738,0 -0.27152,0.0708 -0.0493,0.12898 0.49369,0.12898 0.54305,0 0.76523,-0.0581 0.49369,-0.12898 z m 24.82532,0 c -0.27154,-0.0709 -0.71584,-0.0709 -0.98738,0 -0.27154,0.0708 -0.0493,0.12898 0.49369,0.12898 0.54303,0 0.7652,-0.0581 0.49369,-0.12898 z m 2.96597,-0.005 c -0.34697,-0.067 -0.9817,-0.0688 -1.41054,-0.005 -0.42881,0.0647 -0.14487,0.11967 0.63087,0.12171 0.77579,0.005 1.12665,-0.0511 0.77967,-0.11785 z m -51.48819,-0.27908 c -0.27152,-0.0708 -0.71584,-0.0708 -0.98736,0 -0.27154,0.0709 -0.0493,0.12898 0.49369,0.12898 0.54306,0 0.76521,-0.0579 0.49367,-0.12898 z m 8.02239,0.005 c -0.20369,-0.0813 -0.44696,-0.0715 -0.5407,0.0227 -0.0935,0.0936 0.0729,0.16032 0.37025,0.14828 0.32863,-0.0136 0.39548,-0.0804 0.17054,-0.17031 z m 20.1882,-0.005 c -0.27151,-0.0708 -0.71584,-0.0708 -0.98738,0 -0.27151,0.0709 -0.0493,0.12898 0.49369,0.12898 0.54306,0 0.76521,-0.0579 0.49369,-0.12898 z m 50.92012,-1.70224 c -0.5043,-0.0627 -1.32945,-0.0627 -1.8337,0 -0.50427,0.0627 -0.0917,0.11376 0.91685,0.11376 1.00854,0 1.4211,-0.0513 0.91685,-0.11376 z m 14.42885,-2.00574 c 0.0799,-0.1292 -0.0338,-0.23507 -0.25306,-0.23507 -0.21913,0 -0.33294,0.10582 -0.25303,0.23507 0.0799,0.12921 0.1937,0.2351 0.25303,0.2351 0.0595,0 0.17326,-0.10582 0.25306,-0.2351 z m 9.38559,-2.72704 c 0,-0.23271 -0.10582,-0.42316 -0.23512,-0.42316 -0.12921,0 -0.23507,0.11808 -0.23507,0.2625 0,0.14442 -0.28564,0.3175 -0.63473,0.38476 -0.48493,0.0933 -0.42943,0.13125 0.23505,0.16077 0.60219,0.0263 0.86987,-0.0917 0.86987,-0.38474 z m 19.61222,-4.28324 c -0.20369,-0.0815 -0.44698,-0.0715 -0.54072,0.0227 -0.0936,0.0938 0.0729,0.16032 0.37025,0.14828 0.32865,-0.0136 0.3955,-0.0804 0.17054,-0.17053 z M 117.92575,603.44228 c -0.0647,-0.044 -0.37143,-0.266 -0.68175,-0.49365 -0.5219,-0.3828 -0.53518,-0.37685 -0.17712,0.0797 0.21299,0.27152 0.51973,0.49369 0.68175,0.49369 0.16191,0 0.24168,-0.0359 0.17712,-0.0797 z m 4.59009,-0.39494 c -0.20369,-0.0813 -0.44696,-0.0715 -0.5407,0.0227 -0.0938,0.0936 0.0729,0.16032 0.37028,0.14828 0.32865,-0.0136 0.39547,-0.0804 0.1703,-0.1703 z m -8.16343,-0.27626 c -0.19393,-0.0781 -0.51131,-0.0781 -0.70526,0 -0.19392,0.0781 -0.0354,0.14238 0.35263,0.14238 0.38789,0 0.5466,-0.064 0.35263,-0.14238 z m 4.36725,-0.009 c -0.27444,-0.0715 -0.6553,-0.0668 -0.84629,0.0113 -0.19098,0.0772 0.0336,0.1358 0.49904,0.13012 0.46549,-0.005 0.62174,-0.0688 0.34725,-0.14034 z m 17.00226,-1.77918 c 0,-0.15691 0.84443,-0.29652 1.90421,-0.31457 1.60492,-0.0272 1.74021,-0.0645 0.86069,-0.23532 -1.32223,-0.25714 -2.6522,-0.0668 -3.07248,0.43951 -0.23634,0.2848 -0.23884,0.3925 -0.009,0.3925 0.17417,0 0.31664,-0.12693 0.31664,-0.28212 z m 12.34212,-1.60496 c -0.2715,-0.0711 -0.71584,-0.0711 -0.98736,0 -0.27152,0.0708 -0.0493,0.12898 0.49369,0.12898 0.54306,0 0.76523,-0.0579 0.49367,-0.12898 z m 16.10357,-1.15465 c -0.0518,-0.12149 -0.47491,-0.13647 -0.94038,-0.0331 l -0.84632,0.18734 0.77579,0.0331 c 0.42671,0.0182 0.78583,0.19211 0.79807,0.38601 0.0182,0.2821 0.0506,0.2821 0.16463,0 0.0781,-0.19393 0.0999,-0.45195 0.0481,-0.57328 z m 5.74201,0.31005 c -0.20369,-0.0813 -0.44696,-0.0715 -0.5407,0.0227 -0.0938,0.0938 0.0729,0.16054 0.37027,0.14828 0.32863,-0.0136 0.39548,-0.0804 0.17054,-0.17053 z m 11.86609,-1.96888 c -0.19393,-0.0781 -0.51133,-0.0781 -0.70526,0 -0.19392,0.0781 -0.0352,0.14238 0.35263,0.14238 0.38789,0 0.54658,-0.064 0.35263,-0.14238 z m 6.90623,-0.29075 c -0.27449,-0.0715 -0.65534,-0.0668 -0.84634,0.0114 -0.19097,0.0772 0.0338,0.13579 0.49907,0.12989 0.46547,-0.005 0.62172,-0.0688 0.34727,-0.14057 z m 1.53932,0.005 c -0.20369,-0.0813 -0.44698,-0.0713 -0.54072,0.0227 -0.0938,0.0936 0.0729,0.16032 0.37025,0.14828 0.32868,-0.0136 0.3955,-0.0804 0.17031,-0.1703 z m -3.79079,-0.28384 c -0.27154,-0.0708 -0.71587,-0.0708 -0.98738,0 -0.27154,0.0709 -0.0493,0.12898 0.49366,0.12898 0.54306,0 0.76523,-0.0581 0.49372,-0.12898 z m 20.76493,-2.27918 c 0.0736,-0.11922 -0.36316,-0.1694 -0.97073,-0.1115 -0.60762,0.0579 -1.10471,0.15555 -1.10471,0.21686 0,0.21005 1.94135,0.11149 2.07544,-0.10536 z m 24.06638,-1.95551 c 0,-0.47037 -0.13306,-0.46217 -0.63423,0.0391 -0.35301,0.35304 -0.33818,0.40072 0.11422,0.36666 0.28605,-0.0204 0.52006,-0.20414 0.52006,-0.40586 z m -1.82782,-0.27731 c -0.20368,-0.0813 -0.44698,-0.0715 -0.54071,0.0227 -0.0938,0.0936 0.0729,0.16032 0.37027,0.14828 0.32865,-0.0136 0.39548,-0.0804 0.17054,-0.17031 z"
       id="path3110"
       inkscape:connector-curvature="0"
       sodipodi:nodetypes="sscssssssccssscsssccscccscccsccccccccccccccsccccccccccccssccssccccccccscccscccscccsccccccccsccccccccsccssccscscsssccssccccccccscccccccccsccccccccccsccccsccccccccccccccccscccccccccccccsccssccccccccccc" />
    <path
       inkscape:connector-curvature="0"
       id="path3125"
       d="m 205.52038,483.99984 c 1.5908,-0.29767 1.76265,-0.43439 2.15658,-1.71571 1.11184,-3.61651 -0.0913,-6.13444 -3.90826,-8.17938 -2.66999,-1.43044 -4.69932,-3.81654 -6.4323,-7.56317 -0.57174,-1.23609 -1.36605,-2.75861 -1.76515,-3.38331 -0.65893,-1.03152 -0.71068,-1.2312 -0.56342,-2.17355 0.44993,-2.8791 2.34206,-6.58792 9.54681,-18.71323 3.01048,-5.06656 6.21086,-10.4802 7.11196,-12.03035 l 1.63833,-2.81838 1.47406,-0.63645 c 0.8107,-0.35002 2.14151,-0.82863 2.95729,-1.06356 0.81578,-0.23491 1.52777,-0.52043 1.58221,-0.63437 0.1768,-0.37019 -0.25062,-12.04401 -0.5376,-14.68339 -0.2981,-2.74948 -1.11917,-6.17345 -1.94789,-8.13165 -0.28095,-0.66386 -0.45823,-1.27236 -0.39396,-1.35226 0.29835,-0.37092 9.70174,1.09951 11.16425,1.74578 2.39136,1.05665 5.46267,2.78786 7.26782,4.09662 l 1.87985,1.36288 1.72857,-0.23376 c 0.95071,-0.12875 1.77972,-0.19269 1.84221,-0.1425 0.0624,0.0503 0.52506,1.34948 1.02793,2.88711 2.18122,6.66957 3.02857,8.15057 8.34723,14.58916 4.47825,5.42124 9.65563,11.98047 11.49779,14.56651 1.6318,2.29077 2.47324,3.6925 4.07163,6.78299 4.23607,8.1904 8.06933,12.31609 11.13441,11.98378 1.58324,-0.17166 4.29811,-1.12857 5.15183,-1.81587 0.93097,-0.74949 1.61443,-1.62977 3.13605,-4.03901 0.57206,-0.90577 1.20826,-1.82243 1.41377,-2.037 1.67207,-1.74586 6.89865,-8.10031 7.24079,-8.8034 1.08942,-2.23861 1.46284,-6.24336 0.89985,-9.65072 -0.68843,-4.16669 -1.54727,-5.41662 -3.34794,-4.87251 -1.79776,0.54323 -3.28383,2.4042 -3.77753,4.73056 -0.5227,2.46277 -1.5288,3.2948 -5.89485,4.87479 -2.55418,0.92433 -2.5664,0.92635 -3.91714,0.65628 -1.86764,-0.37349 -3.83882,-1.99525 -5.74047,-4.72286 -1.95771,-2.80803 -2.86307,-4.81827 -6.9397,-15.40847 -2.27566,-5.91169 -3.12099,-7.74867 -4.44032,-9.64933 -1.49754,-2.15734 -2.95645,-5.16241 -6.26015,-12.8947 -0.68337,-1.59939 -0.9831,-2.588 -0.9353,-3.08482 0.22321,-2.32006 0.36779,-2.06466 -2.03622,-3.58797 -4.09723,-2.59589 -4.8008,-3.01526 -8.06971,-4.81014 -4.62751,-2.54086 -12.43718,-6.43769 -13.84802,-6.9098 -0.20206,-0.0678 -0.53632,-0.2122 -0.74289,-0.32133 -1.27521,-0.67382 -6.13334,-2.60666 -11.23908,-4.47151 -7.65269,-2.79516 -13.4487,-5.48496 -13.15303,-6.10404 0.16912,-0.35403 3.21693,-2.94443 8.31811,-7.06966 4.98644,-4.03243 5.75657,-4.64538 8.79935,-7.00361 0.95797,-0.74245 2.81876,-2.19188 4.1351,-3.22102 4.2448,-3.3186 5.48737,-4.24675 5.71884,-4.27186 0.1247,-0.0136 0.98859,1.247 1.91956,2.80111 0.93095,1.55413 2.97453,4.81086 4.54132,7.23716 l 2.84866,4.41148 2.82725,1.04286 c 3.3842,1.24829 5.10388,1.50248 5.87519,0.86841 0.60327,-0.4959 3.13725,-4.23446 4.94687,-7.29841 2.85073,-4.82679 3.57054,-6.32037 4.34251,-9.01057 0.43296,-1.50881 1.25491,-4.3871 1.82657,-6.3962 0.57165,-2.00911 1.14781,-3.98329 1.28036,-4.38713 1.69589,-5.16659 1.94443,-5.62781 3.44583,-6.39432 1.8277,-0.93305 5.91951,-3.80767 7.63592,-5.36447 1.77485,-1.60982 3.27349,-3.28794 4.14701,-4.64366 0.22461,-0.34862 1.06877,-1.59022 1.87591,-2.75908 0.80712,-1.16882 1.68462,-2.72549 1.94997,-3.45923 0.65298,-1.80553 0.41278,-2.50688 -1.32856,-3.87945 -0.74394,-0.58641 -1.97956,-1.64282 -2.7458,-2.34758 -2.38112,-2.19009 -7.15062,-4.47343 -11.12392,-5.32543 -2.30191,-0.49365 -2.51133,-0.5918 -5.46453,-2.56273 -6.63711,-4.42948 -13.20756,-9.17357 -13.72247,-9.90806 -0.14157,-0.20185 -0.54486,-1.50962 -0.89636,-2.90612 -0.7849,-3.11836 -1.25431,-4.12553 -2.44476,-5.24538 -0.50885,-0.47867 -1.5827,-1.86859 -2.38636,-3.08875 -1.99609,-3.03051 -3.74733,-4.4475 -6.04809,-4.89375 -2.14821,-0.41662 -6.15672,-0.22896 -8.12779,0.38051 -2.08234,0.6439 -4.56513,2.02401 -6.07099,3.37469 -1.78273,1.59898 -5.82834,6.78308 -6.3268,8.10725 -0.37269,0.99008 -0.37082,1.37392 0.0226,4.59984 0.23607,1.93581 0.43142,3.64656 0.43385,3.80176 0.003,0.15519 -1.10935,1.25322 -2.47084,2.44003 -2.48496,2.16617 -2.85066,2.57466 -5.89895,6.58817 -2.72192,3.58381 -3.25005,4.34773 -4.92054,7.11709 -1.97732,3.278 -2.83157,4.9511 -3.65572,7.15969 -0.43594,1.1683 -1.18911,2.42014 -2.3603,3.92302 -11.2316,14.41292 -18.24493,25.45446 -20.5765,32.39508 -0.38466,1.14511 -0.94112,2.79855 -1.23651,3.67433 -2.22217,6.58759 -3.23161,10.94244 -3.03041,13.07341 0.0429,0.44967 -0.11191,2.00644 -0.3429,3.45939 -1.29252,8.12797 -1.01458,10.85682 1.52191,14.94005 1.70174,2.73953 3.54398,4.73912 7.61129,8.26141 0.9566,0.82839 1.99937,2.17922 3.69861,4.79134 1.30153,2.00074 3.489,5.26842 4.86103,7.26152 3.66335,5.32159 4.96574,7.35742 6.14198,9.60079 2.53205,4.82914 2.45547,6.46185 -0.5228,11.14943 -1.02354,1.61098 -4.21083,10.26746 -5.06876,13.76644 -0.35965,1.46689 -0.93514,4.05991 -1.27881,5.7623 -0.7844,3.88545 -2.08366,8.05866 -3.46676,11.13512 -0.82703,1.83952 -1.60598,3.04464 -3.43861,5.31997 -1.30311,1.61792 -2.61952,3.51306 -2.92534,4.21145 -0.67686,1.5456 -0.5981,3.02216 0.21779,4.08317 1.05179,1.36786 5.01364,2.87195 9.75797,3.70459 l 1.71964,0.30193 2.52782,2.41191 c 4.14099,3.95114 6.89356,5.76624 9.78836,6.45469 1.4683,0.34924 3.4753,0.42807 4.7628,0.18713 z m -2.53121,-1.57753 c -0.006,-0.0492 0.20026,-0.11214 0.45686,-0.13996 0.2566,-0.0278 0.47688,0.0446 0.48948,0.16086 0.0126,0.11624 -0.19296,0.17936 -0.45687,0.13996 -0.26386,-0.0394 -0.48414,-0.11169 -0.48947,-0.16086 z m -4.67098,-33.96761 c 0.16114,-0.0855 0.36318,-0.0992 0.44913,-0.0297 0.0859,0.0692 -0.0458,0.13911 -0.29286,0.15581 -0.27301,0.0183 -0.33422,-0.031 -0.15631,-0.12572 z m 82.35695,-9.23233 c -0.0134,-0.12429 0.1396,-0.18248 0.33993,-0.12974 0.20045,0.053 0.36895,0.1376 0.37441,0.18803 0.006,0.0503 -0.1474,0.10887 -0.33996,0.12976 -0.19243,0.0209 -0.3609,-0.0636 -0.37438,-0.18805 z m -4.05277,0.0348 c 0.16114,-0.0855 0.36318,-0.0992 0.44915,-0.0297 0.0858,0.0692 -0.0459,0.13911 -0.29289,0.15581 -0.27296,0.0182 -0.33421,-0.031 -0.15631,-0.12572 z m -9.48474,-10.61127 c 0.0652,-0.13685 0.16517,-0.25393 0.22175,-0.26006 0.0565,-0.006 0.11426,0.0939 0.12819,0.22212 0.0139,0.12824 -0.0859,0.24533 -0.22174,0.26006 -0.13577,0.0148 -0.19353,-0.0852 -0.1282,-0.22212 z m -74.44777,2.31792 c -0.006,-0.0484 0.15847,-0.25206 0.36397,-0.45249 0.33855,-0.33026 0.34768,-0.32291 0.0976,0.0784 -0.26263,0.4216 -0.44081,0.56596 -0.46161,0.37396 z m 23.13514,-6.47936 c -0.0107,-0.0993 0.23758,-0.18723 0.55187,-0.19527 0.31431,-0.008 0.54077,0.0499 0.50326,0.12815 -0.10273,0.2154 -1.03265,0.2744 -1.05511,0.0671 z m 1.19948,-1.99804 c -0.0139,-0.12825 0.0867,-0.17983 0.2236,-0.1145 0.13683,0.0653 0.26028,0.22384 0.27419,0.35213 0.0139,0.12824 -0.0867,0.17982 -0.22361,0.11449 -0.13683,-0.0653 -0.26028,-0.22383 -0.27418,-0.35212 z m 45.07347,-5.26703 c 0.069,-0.0857 0.13911,0.0459 0.15564,0.29288 0.0182,0.27299 -0.0311,0.33425 -0.1258,0.15612 -0.0855,-0.16115 -0.0992,-0.36321 -0.0297,-0.44917 z m -44.78099,3.61103 c -0.0417,-0.3849 0.0115,-0.70921 0.11682,-0.72077 0.1061,-0.0116 0.1808,0.29903 0.16619,0.69003 -0.0152,0.39102 -0.0673,0.71537 -0.11682,0.72077 -0.0496,0.006 -0.12446,-0.30514 -0.16619,-0.69003 z m 44.83723,-5.26923 c 0.069,-0.0859 0.13911,0.0459 0.1558,0.29286 0.0182,0.27299 -0.0311,0.33424 -0.12572,0.1563 -0.0855,-0.16114 -0.0992,-0.36319 -0.0297,-0.44916 z m -44.96565,3.22292 c 0.0692,-0.0859 0.1391,0.0459 0.15581,0.29291 0.0182,0.27296 -0.031,0.3342 -0.12579,0.15609 -0.0855,-0.16114 -0.099,-0.36321 -0.0297,-0.44914 z m -0.59103,-0.23585 c -0.0139,-0.12824 0.15852,-0.25159 0.38333,-0.27396 0.34931,-0.0337 0.36129,-0.002 0.0833,0.22338 -0.40939,0.33222 -0.4357,0.33507 -0.46656,0.0506 z m -0.10515,-5.12192 c 0.017,-0.65298 0.0615,-0.74683 0.16879,-0.3552 0.1341,0.4907 0.067,1.2147 -0.1148,1.23439 -0.0424,0.005 -0.0667,-0.39105 -0.054,-0.87918 z m -0.36116,-4.20915 c 0.0346,-0.23082 0.10224,-0.0524 0.15092,0.39667 0.0487,0.44906 0.0207,0.63794 -0.0624,0.41978 -0.0829,-0.21817 -0.12273,-0.58558 -0.0885,-0.81646 z m 36.28384,-12.96297 c -0.0139,-0.12824 0.0859,-0.24531 0.22173,-0.26005 0.13577,-0.0147 0.19353,0.0852 0.12819,0.22211 -0.0652,0.13685 -0.16516,0.25393 -0.22173,0.26004 -0.0565,0.006 -0.11429,-0.0937 -0.12819,-0.2221 z m -33.4445,3.22873 c 0.16113,-0.0856 0.36321,-0.0992 0.44916,-0.0297 0.0858,0.0691 -0.0459,0.13911 -0.29289,0.15582 -0.27295,0.0182 -0.33422,-0.0311 -0.15628,-0.12552 z m -47.77845,-28.34514 c 0.0691,-0.0859 0.13928,0.046 0.1558,0.29289 0.0183,0.27298 -0.0311,0.33421 -0.12559,0.1561 -0.0856,-0.16114 -0.0992,-0.36316 -0.0297,-0.44914 z m 63.59043,-24.31933 c -0.006,-0.0565 0.0939,-0.11426 0.22212,-0.12818 0.12825,-0.0139 0.24532,0.0859 0.26007,0.22175 0.0147,0.13578 -0.0853,0.19353 -0.22213,0.1282 -0.13683,-0.0653 -0.25393,-0.16519 -0.26006,-0.22177 z m 11.76577,-12.64908 c -1.57296,-4.11169 -2.09665,-5.68103 -2.6795,-8.02941 -0.51649,-2.08101 -1.72013,-4.66041 -4.06155,-8.70388 -0.93104,-1.60785 -1.56721,-3.01172 -1.78646,-3.94232 -0.18725,-0.79488 -0.63487,-1.96633 -0.99465,-2.60321 -0.82481,-1.45993 -0.78066,-2.31006 0.2139,-4.11968 0.40873,-0.74375 1.14971,-2.09359 1.64659,-2.99968 0.49687,-0.90608 0.95052,-1.88079 1.00817,-2.16603 0.13148,-0.65067 1.87786,-2.58149 2.56436,-2.83509 0.77548,-0.28651 3.17034,0.22308 4.44583,0.94601 0.62238,0.35275 2.4118,1.18369 3.97647,1.8465 2.14357,0.90809 3.30813,1.57955 4.72439,2.72406 2.02807,1.63891 3.24772,2.15202 6.98216,2.93759 2.50532,0.52705 4.8561,1.25221 4.88367,1.50661 0.035,0.32278 -0.90908,1.02471 -1.85647,1.38041 -6.48591,2.43498 -8.14811,3.93952 -8.70578,7.87981 -0.5911,4.17684 -4.65655,13.7968 -8.07551,19.10891 -0.68288,1.06095 -0.83159,0.87027 -2.28562,-2.9306 z m -1.71491,0.18593 c 0.0346,-0.23085 0.10224,-0.0524 0.15092,0.39664 0.0487,0.44907 0.0207,0.63796 -0.0624,0.41982 -0.083,-0.21818 -0.1228,-0.58559 -0.0885,-0.81647 z m 9.19961,-2.40859 c 0.0692,-0.0857 0.13911,0.0458 0.15561,0.29288 0.0183,0.27298 -0.0311,0.33424 -0.12569,0.15612 -0.0855,-0.16114 -0.0992,-0.36319 -0.0297,-0.44915 z m -10.455,-35.39523 c 0.17158,-0.21332 0.35444,-0.39245 0.40638,-0.39809 0.0518,-0.006 0.11153,0.14732 0.13239,0.33968 0.0209,0.19245 -0.16203,0.3716 -0.40641,0.39809 -0.39495,0.0428 -0.40968,0.005 -0.13239,-0.33968 z"
       style="fill:#000000;fill-opacity:0.39215686"
       sodipodi:nodetypes="csscccsscssccsccscccsssssssccsssscsscssssccscsssscscscsssccscsscscscsssscscccsssscscccccssssssccssscssccssscsscccccscsssccccccsssccccccsccssscscsccccccscscccccccccccccccccccscccsccsscssccccccccccssscsssscccsccccssscscscsccccccccssscc" />
    <path
       inkscape:connector-curvature="0"
       id="path3129"
       d="m 808.65939,637.32957 c -1.7342,-0.6392 -3.5887,-1.70297 -4.74108,-2.71949 -1.48322,-1.30863 -5.39602,-6.04704 -5.78961,-7.01166 -0.76218,-1.86744 -1.86441,-8.25061 -3.55156,-20.56671 -0.53346,-3.89473 -1.19389,-8.67501 -1.46754,-10.62317 -0.64175,-4.56827 -2.04773,-13.0607 -2.66688,-16.10871 -0.44232,-2.17745 -0.43685,-2.63295 0.0641,-5.34454 0.52866,-2.85985 0.58105,-2.99371 1.4913,-3.80324 1.3108,-1.16547 3.14818,-1.685 6.34784,-1.79433 1.48867,-0.051 3.74733,-0.12792 5.01921,-0.17097 3.36076,-0.11396 12.58912,-0.9956 14.329,-1.36897 2.00322,-0.42991 7.39468,-0.93741 13.75041,-1.29439 14.36644,-0.8067 20.01502,-1.13985 26.142,-1.54198 3.67913,-0.24154 8.65221,-0.56642 11.05132,-0.72217 11.5603,-0.74998 33.87807,-2.40927 37.14475,-2.76154 7.07167,-0.76263 9.43237,-0.688 12.24548,0.38685 2.52226,0.96368 3.30212,1.66009 6.6312,5.92131 6.31975,8.08931 28.04616,30.92796 36.59135,38.46458 2.81135,2.4796 4.18825,4.29853 4.39404,5.80502 0.44547,3.26113 -2.60899,7.07278 -6.94168,8.66241 -2.89493,1.06225 -11.97801,3.53179 -18.38031,4.99736 -1.07369,0.24575 -2.89844,0.66485 -4.05508,0.93141 -5.14199,1.18484 -10.12795,2.25269 -12.87618,2.75769 -3.74741,0.68872 -20.67994,2.86628 -29.00109,3.72967 -0.72517,0.0753 -5.54358,0.60529 -10.70762,1.17801 -27.84684,3.08788 -48.23753,4.73836 -58.40502,4.72742 -5.25563,-0.006 -14.57148,-0.97536 -16.61838,-1.72986 z m 20.1161,-0.0876 c -0.18091,-0.0867 -0.49648,-0.12606 -0.7013,-0.0874 -0.20485,0.0386 -0.0568,0.10917 0.32897,0.15726 0.3857,0.0481 0.5532,0.0169 0.37233,-0.0698 z m 11.46802,-0.27253 c 0.0238,-0.12446 -0.15361,-0.25119 -0.39406,-0.28117 -0.24059,-0.03 -0.37881,0.0574 -0.30717,0.19375 0.0716,0.13659 0.24886,0.26306 0.39405,0.28116 0.14516,0.0181 0.2834,-0.0693 0.30718,-0.19374 z m 25.72405,-2.3609 c 0.0238,-0.12469 -0.24102,-0.26041 -0.5885,-0.30184 -0.5104,-0.0637 -0.55929,-0.0234 -0.25305,0.19692 0.48962,0.35171 0.78731,0.38882 0.84155,0.10492 z m 53.8569,-6.43125 c -0.18091,-0.0867 -0.49645,-0.12606 -0.7013,-0.0874 -0.20485,0.0386 -0.0571,0.11079 0.32865,0.15889 0.38571,0.0481 0.55325,0.0166 0.37265,-0.0715 z M 796.26243,604.1097 c 0.0238,-0.12446 -0.0904,-0.2433 -0.25375,-0.26368 -0.16356,-0.0204 -0.23856,0.0749 -0.16719,0.2112 0.0714,0.13632 0.1858,0.25519 0.25378,0.26368 0.0681,0.008 0.14342,-0.0867 0.16719,-0.21119 z m -0.39747,-4.39955 c -0.0291,-0.2271 -0.12066,-0.0554 -0.20396,0.38057 -0.0833,0.43625 -0.0593,0.62186 0.0525,0.41253 0.11216,-0.2095 0.18032,-0.56624 0.15151,-0.7931 z m 4.29683,-28.28725 c 0.40708,0.0507 0.40647,0.0863 -6e-5,0.24977 -0.25664,0.10328 -0.30259,0.17433 -0.10193,0.15751 0.63402,-0.0524 0.61706,-0.45958 -0.0257,-0.61699 -0.45169,-0.111 -0.63253,-0.0397 -0.67394,0.26405 -0.0311,0.23974 0.026,0.30273 0.13889,0.1495 0.10764,-0.14609 0.40569,-0.23782 0.66246,-0.20393 z m 1.48877,0.25599 c -0.19024,-0.0902 -0.43359,-0.11234 -0.5412,-0.0484 -0.10756,0.0641 0.0478,0.13792 0.3454,0.16503 0.32902,0.0292 0.40565,-0.016 0.19549,-0.11589 z m 8.32514,-1.10195 c 0.10829,-0.1018 -0.0664,-0.164 -0.38761,-0.13748 -0.68139,0.0567 -0.79363,0.20042 -0.2131,0.2728 0.2222,0.0277 0.49271,-0.0337 0.60066,-0.13552 z m 34.55748,-3.06604 c -0.26191,-0.0909 -0.64144,-0.13466 -0.84374,-0.0933 -0.20148,0.0379 0.0122,0.11327 0.4763,0.16612 0.46506,0.0461 0.62866,0.0225 0.36683,-0.0696 z m 20.75329,-1.11753 c -0.18091,-0.0867 -0.49645,-0.12606 -0.7013,-0.0874 -0.20485,0.0386 -0.0568,0.10941 0.32892,0.1575 0.38571,0.0481 0.55325,0.0166 0.37238,-0.07 z m 8.98532,-0.80674 c 0.023,-0.12051 -0.15868,-0.18453 -0.40369,-0.14185 -0.24516,0.0431 -0.45333,0.11798 -0.46269,0.16697 -0.009,0.0488 0.17235,0.11302 0.40369,0.14186 0.2314,0.0288 0.43962,-0.0462 0.46269,-0.16698 z m 18.78374,-1.14546 c 0.22765,0.0284 0.35252,-0.0654 0.27736,-0.20868 -0.16433,-0.31365 -1.01502,0.0327 -1.05604,0.42995 -0.0164,0.16248 0.046,0.15956 0.16889,-0.007 0.10765,-0.1461 0.38188,-0.24248 0.60957,-0.21409 z m 9.90453,-0.82212 c -0.10483,-0.19993 -1.55026,-0.27791 -1.58691,-0.0861 -0.009,0.0476 0.36953,0.13522 0.84146,0.19406 0.47194,0.0588 0.80741,0.0103 0.74545,-0.10795 z m 11.40472,-0.15974 c -0.18995,-0.0902 -0.43355,-0.11233 -0.54124,-0.0485 -0.10755,0.0641 0.0478,0.13815 0.34549,0.1648 0.32898,0.0292 0.40568,-0.0159 0.19543,-0.11567 z m -4.42827,-0.77914 c -0.18091,-0.0867 -0.49647,-0.12606 -0.70133,-0.0874 -0.20485,0.0386 -0.0565,0.10944 0.32893,0.1575 0.38569,0.0481 0.55324,0.0166 0.3724,-0.07 z m 4.57475,0.10636 c -0.1809,-0.0867 -0.49646,-0.12606 -0.70129,-0.0874 -0.20485,0.0386 -0.0568,0.10941 0.3289,0.1575 0.38569,0.0481 0.55326,0.0166 0.37239,-0.07 z"
       style="fill:#000000;fill-opacity:0.39215686"
       sodipodi:nodetypes="cccccsccccccccscscsccccccscccscsscsssccscssccscscccscccccccccccccccccsccccccccsscscssscccccccssccccccccscccsc" />
    <path
       style="fill:#000000;fill-opacity:0.39215686"
       d="m 824.59482,512.27761 c -0.26265,-0.14103 -0.76991,-0.41059 -1.12721,-0.599 -0.69853,-0.36835 -2.24356,-1.75519 -2.52622,-2.2676 -0.0949,-0.1722 -0.41012,-1.1398 -0.70021,-2.15025 -0.62735,-2.18464 -0.98022,-2.83374 -1.92723,-3.54511 -0.52395,-0.3935 -0.91785,-1.0106 -1.50231,-2.35387 -0.78059,-1.79385 -0.78893,-1.84131 -0.5716,-3.24705 0.32333,-2.09097 0.94762,-2.95336 2.39995,-3.31503 1.5423,-0.38412 3.92174,-0.47784 4.39459,-0.17306 0.69504,0.44791 1.20715,1.90508 1.31108,3.73076 0.11953,2.09886 0.19578,2.2968 0.78588,2.03998 0.61486,-0.26744 0.77267,-0.57232 1.69104,-3.26787 0.44909,-1.31816 1.54128,-4.20666 2.42708,-6.41909 0.8858,-2.2123 1.86845,-4.87524 2.18365,-5.91762 0.38451,-1.27136 1.13239,-2.9325 2.27217,-5.04662 0.93444,-1.73331 1.94306,-3.62502 2.24138,-4.20386 0.49409,-0.95872 1.49663,-2.74283 3.26765,-5.81506 0.36229,-0.62849 0.89401,-1.75155 1.18159,-2.4957 0.42635,-1.10323 0.83008,-1.67779 2.18661,-3.11186 0.91503,-0.96728 1.95522,-2.27334 2.31153,-2.90229 1.67631,-2.95894 2.32691,-3.95294 3.84077,-5.86817 1.75723,-2.22323 3.04029,-4.31881 3.95349,-6.45714 0.80017,-1.87374 4.48024,-6.48421 6.87428,-8.61215 2.2322,-1.98408 3.33894,-3.2991 5.49656,-6.53107 1.2705,-1.90308 1.72973,-2.77815 2.03329,-3.87411 0.21568,-0.77865 0.58792,-1.73521 0.82729,-2.12578 0.69148,-1.12827 2.23678,-5.12537 2.69623,-6.97405 0.41928,-1.68712 1.15737,-9.15192 0.9686,-9.79565 -0.0754,-0.25655 -0.17672,-0.23119 -0.5596,0.13982 -0.25724,0.24929 -1.01745,0.5944 -1.68938,0.767 -1.61739,0.41537 -5.84817,2.3182 -7.52564,3.38463 -0.78608,0.49979 -1.63968,0.87489 -2.06748,0.90861 -0.40074,0.0317 -1.47231,0.21572 -2.38127,0.40916 -2.33803,0.49765 -3.16582,0.39536 -3.91264,-0.48362 -1.03942,-1.22323 -1.84157,-6.26479 -1.9164,-12.04444 -0.0155,-1.20151 -0.0786,-2.6563 -0.14016,-3.23276 -0.0616,-0.57656 0.053,-3.07814 0.25458,-5.55905 0.25347,-3.11921 0.31549,-4.98135 0.20123,-6.03575 -0.12232,-1.12878 -0.0698,-2.33318 0.20227,-4.63633 0.3546,-3.00107 0.39905,-3.17603 1.261,-4.93278 0.49144,-1.00173 1.35146,-2.54665 1.91122,-3.43323 l 1.01765,-1.61191 1.07708,0.0875 1.07709,0.0875 0.25738,-1.9401 c 0.22668,-1.70928 0.314,-1.97864 0.73246,-2.26419 0.26138,-0.17837 0.62861,-0.28166 0.81617,-0.22967 0.18744,0.0516 0.39367,0.10553 0.45815,0.11939 0.27375,0.058 0.64476,1.67614 0.71711,3.12823 0.25738,5.16349 -0.73766,8.54946 -3.20038,10.89048 -0.41304,0.39261 -0.74239,0.90223 -0.7653,1.18421 -0.0221,0.2723 0.37824,2.99647 0.88974,6.05376 0.86114,5.14725 1.00219,5.72685 1.90567,7.82976 0.53664,1.24903 1.04068,2.2764 1.12017,2.28293 0.0796,0.007 0.34018,-0.30859 0.57935,-0.70034 0.64415,-1.05513 2.89657,-6.53865 3.15006,-7.66879 0.1207,-0.53843 0.62976,-1.70383 1.13109,-2.58971 0.84973,-1.50155 1.15423,-1.8163 4.4914,-4.6427 l 3.57988,-3.03196 1.09991,-0.042 c 0.60493,-0.0232 2.40009,-0.0338 3.9892,-0.024 1.58914,0.01 3.43443,0.0206 4.10068,0.0239 0.97631,0.005 1.43949,0.12299 2.3877,0.59919 1.12156,0.56551 1.23155,0.58494 2.36053,0.4165 0.65129,-0.0972 1.76973,-0.4251 2.48549,-0.72866 1.64802,-0.69904 1.99921,-1.27509 2.00375,-3.28607 0.003,-1.1873 -0.11571,-1.64977 -0.79436,-3.10277 -0.43861,-0.93912 -1.19095,-2.23849 -1.67186,-2.88735 -0.48088,-0.64884 -0.90333,-1.3794 -0.93883,-1.6234 -0.0356,-0.24399 -0.17923,-1.24138 -0.31954,-2.21645 -0.3512,-2.44112 -0.14602,-4.60831 0.65942,-6.96315 0.35541,-1.03919 0.73432,-1.98434 0.84208,-2.10032 0.10774,-0.11585 0.39212,-0.68833 0.63194,-1.27194 0.79309,-1.93004 1.73702,-3.20073 2.89087,-3.89156 1.2099,-0.72436 2.44705,-1.6647 2.46395,-1.87273 0.0131,-0.16155 -4.47611,-2.51789 -6.2827,-3.29786 -0.71704,-0.30961 -1.77508,-1.01682 -2.55277,-1.70634 -0.73052,-0.64772 -1.47282,-1.19109 -1.64958,-1.20762 -0.17698,-0.0144 -0.68335,0.0656 -1.12576,0.18242 -0.97551,0.25752 -6.78356,0.23335 -7.92142,-0.033 -1.22914,-0.28765 -2.68187,-1.30113 -2.71708,-1.89547 -0.0461,-0.77782 0.51201,-0.96606 2.41593,-0.81471 0.93234,0.0758 1.8265,0.0659 1.98684,-0.0183 0.22388,-0.11767 0.28165,-0.4233 0.24947,-1.32059 -0.064,-1.78263 -0.64559,-3.14326 -1.76536,-4.13002 -1.25505,-1.10609 -1.4597,-1.99273 -0.8084,-3.50219 0.61653,-1.42881 2.37756,-3.02134 3.26164,-2.94951 0.63937,0.052 2.77222,-0.46208 3.25527,-0.7845 0.14603,-0.0975 0.65226,-0.10128 1.12533,-0.009 1.65517,0.32408 5.48309,4.03047 6.58194,6.37305 1.12233,2.3926 4.26986,6.35333 5.96664,7.50811 0.57146,0.38893 1.62211,1.25982 2.33478,1.93517 0.71267,0.67538 1.50907,1.36329 1.76975,1.5287 0.961,0.60963 3.43908,1.35272 5.54669,1.66321 1.97024,0.29024 2.34011,0.41257 4.07212,1.34652 2.102,1.13347 3.04554,2.0737 5.52676,5.50769 1.73279,2.39811 2.38124,4.64046 2.42069,8.37064 0.0299,2.82439 -0.33594,4.54536 -1.4356,6.75594 -0.32909,0.66153 -0.75745,1.82347 -0.95189,2.58197 l -0.3535,1.37915 0.83873,1.62585 c 0.46129,0.89415 1.53874,3.02839 2.39429,4.74264 l 1.5556,3.11682 0.23573,2.51124 c 0.12965,1.38118 0.26603,3.86551 0.30307,5.5207 l 0.0673,3.0095 -0.63801,1.67902 c -0.3509,0.92347 -0.79972,2.54058 -0.99738,3.59361 -1.17821,6.27716 -1.9392,8.28315 -4.97636,13.11775 -2.23579,3.55893 -3.77674,7.02384 -5.21335,11.72238 -0.71969,2.35376 -1.34913,4.40358 -1.39879,4.55502 -0.11413,0.34881 0.67569,0.85927 1.45089,0.93752 0.82414,0.0833 1.85199,0.57635 2.95583,1.41832 0.82682,0.63062 0.96646,0.85163 1.17983,1.8669 0.4289,2.04096 0.17075,3.57953 -1.09495,6.52546 -0.61451,1.43038 -1.21222,3.04148 -1.32821,3.58034 -0.40124,1.86368 -1.53876,5.07302 -3.02207,8.52642 -1.55655,3.62383 -3.81403,7.49762 -5.6704,9.73002 -0.62809,0.75543 -1.10127,1.58865 -1.39709,2.46019 -0.4993,1.47135 -0.49541,1.482 0.87405,2.38164 0.74339,0.48832 0.78026,1.1222 0.30169,5.18483 -0.5006,4.25005 -0.58466,4.35814 -4.95125,6.37257 -1.44325,0.66578 -2.07739,1.08358 -2.52094,1.66072 -0.32598,0.42412 -1.15933,1.24149 -1.85191,1.81637 -1.46678,1.2175 -2.12841,1.36384 -3.86615,0.85514 -1.56719,-0.45875 -2.0724,-0.80646 -2.62242,-1.80479 -0.76725,-1.39284 -0.42446,-2.78179 1.07937,-4.37337 1.077,-1.13993 1.5587,-2.24808 1.52531,-3.50908 -0.0262,-0.98983 0.0204,-1.10033 0.86148,-2.04568 0.60305,-0.67777 1.09479,-1.52803 1.52807,-2.64202 0.35139,-0.90353 0.96528,-2.42385 1.36421,-3.37859 0.39891,-0.95467 0.73041,-1.79872 0.73667,-1.87565 0.006,-0.0768 -0.42915,0.0371 -0.96753,0.25303 -0.57439,0.23051 -1.98439,0.47971 -3.41206,0.603 -1.33824,0.11545 -3.3786,0.38381 -4.53415,0.59623 -1.93019,0.35478 -2.40703,0.36317 -5.86584,0.10262 -2.07065,-0.15631 -5.24343,-0.3049 -7.05053,-0.33093 -1.8071,-0.0261 -4.29726,-0.12632 -5.53363,-0.22286 l -2.24788,-0.17664 -1.42113,1.16521 c -1.02481,0.8401 -1.67179,1.57983 -2.31988,2.65241 -0.9624,1.5926 -2.46641,3.48162 -3.27714,4.11603 -0.74967,0.58663 -3.15565,1.606 -3.69985,1.56739 -0.26328,-0.0214 -1.55837,0.0889 -2.87748,0.23889 -2.54078,0.28888 -2.94202,0.48189 -3.02971,1.45735 -0.0797,0.88226 -0.87742,1.9816 -2.62229,3.61209 -1.6856,1.57507 -1.69937,1.59579 -2.95864,4.44467 -0.69582,1.57414 -1.45479,3.38386 -1.68658,4.02149 -0.51047,1.40434 -1.19429,2.4096 -2.36303,3.47353 -1.45703,1.32642 -2.14935,2.31456 -3.14807,4.49324 -0.52359,1.14233 -1.66189,3.23029 -2.52948,4.64009 -1.31729,2.14035 -1.74584,3.05588 -2.598,5.54981 -0.56127,1.64255 -1.17126,3.13944 -1.35551,3.32628 -0.40923,0.41507 -2.307,0.48185 -3.00741,0.1057 z m 3.64993,-5.66234 c 0.2695,-0.14464 0.26644,-0.17208 -0.0218,-0.1981 -0.1843,-0.015 -0.39701,0.0547 -0.47318,0.15788 -0.17522,0.23807 0.087,0.25938 0.49514,0.0402 z m -8.52018,-9.99932 c -0.13828,-0.0681 -0.30978,-0.075 -0.38091,-0.0149 -0.0713,0.061 0.042,0.11686 0.2515,0.12523 0.23144,0.01 0.28222,-0.0339 0.12924,-0.10982 z m 1.97447,-0.83766 c -0.18654,-0.065 -0.49853,-0.0904 -0.69319,-0.0563 -0.19461,0.034 -0.0419,0.0876 0.33923,0.11856 0.38127,0.031 0.54056,0.003 0.35396,-0.0622 z m 9.94752,-4.65242 c -0.22429,-0.1563 -0.4466,-0.17436 -0.69321,-0.0563 -0.29614,0.14163 -0.23534,0.18416 0.33021,0.23011 0.56555,0.046 0.63242,0.0135 0.363,-0.17378 z m 16.68243,-15.31175 c -0.13822,-0.0688 -0.30971,-0.0758 -0.3809,-0.0149 -0.071,0.0602 0.042,0.11677 0.25151,0.12502 0.23144,0.01 0.28223,-0.034 0.12945,-0.10978 z m 43.74231,-2.43578 c -0.0604,-0.0709 -0.11685,0.0426 -0.12504,0.25156 -0.01,0.23141 0.0341,0.28218 0.11005,0.12926 0.0688,-0.13839 0.0757,-0.30972 0.0146,-0.38091 z m 6.17925,-4.68544 c -0.0341,-0.1946 -0.0877,-0.0423 -0.11867,0.33925 -0.031,0.38126 -0.003,0.54053 0.0623,0.35394 0.0651,-0.18654 0.0905,-0.49859 0.0563,-0.69319 z m -34.35198,-2.77532 c -0.13177,-0.0655 -0.35458,-0.0836 -0.49516,-0.0402 -0.14066,0.044 -0.0329,0.0978 0.23944,0.11996 0.27234,0.0221 0.38742,-0.0142 0.25572,-0.0797 z m 1.68396,0.13081 c -0.1865,-0.0656 -0.4985,-0.091 -0.69322,-0.0563 -0.19466,0.0348 -0.0419,0.0878 0.33925,0.11877 0.38127,0.031 0.54051,0.003 0.35397,-0.0624 z m 1.66433,0.0945 c -0.21619,-0.16303 -0.21268,-0.20622 0.0226,-0.27833 0.1534,-0.0473 0.0101,-0.11298 -0.31442,-0.14631 -0.41654,-0.0429 -0.51509,-0.003 -0.33106,0.13655 0.21059,0.15865 0.1868,0.21025 -0.1211,0.26297 -0.21467,0.0366 -0.0793,0.099 0.30842,0.14195 0.45872,0.0513 0.60538,0.0113 0.4355,-0.11683 z m 3.18601,0.29621 c -0.24253,-0.0675 -0.59921,-0.0942 -0.79273,-0.0584 -0.19337,0.0342 0.005,0.0895 0.44093,0.12271 0.4357,0.0354 0.5941,0.005 0.35161,-0.062 z m -2.17302,-0.37107 c -0.13824,-0.0688 -0.3097,-0.0757 -0.38087,-0.0149 -0.0711,0.0609 0.042,0.11678 0.25148,0.12524 0.23145,0.01 0.28225,-0.034 0.12945,-0.10981 z m 3.73107,0.23997 c 0.009,-0.10907 -0.073,-0.20536 -0.18198,-0.21421 -0.10896,-0.009 -0.20533,0.073 -0.21419,0.18202 -0.009,0.10883 0.073,0.20533 0.18199,0.21419 0.10883,0.009 0.20532,-0.073 0.21418,-0.182 z m 14.02065,-0.18896 c -0.1317,-0.0663 -0.35451,-0.0844 -0.49516,-0.0402 -0.14068,0.0444 -0.0329,0.0978 0.23947,0.11995 0.27235,0.0221 0.38739,-0.0139 0.25569,-0.0797 z m 19.60583,-9.78391 c -0.0603,-0.071 -0.11685,0.0425 -0.12523,0.25145 -0.01,0.23149 0.0341,0.28226 0.10981,0.12925 0.0688,-0.13843 0.0759,-0.3097 0.0146,-0.38093 z m 6.33142,-15.60966 c 0.003,-0.0425 -0.12741,-0.0888 -0.29075,-0.10208 -0.16339,-0.0133 -0.3041,0.0623 -0.31266,0.16764 -0.009,0.10533 0.12232,0.15151 0.29074,0.10208 0.16849,-0.0495 0.30919,-0.12483 0.31267,-0.16766 z m -0.12965,-1.82913 c -0.0605,-0.071 -0.11683,0.0425 -0.12501,0.25141 -0.01,0.23154 0.034,0.28232 0.1098,0.12946 0.0689,-0.13841 0.0759,-0.30967 0.0146,-0.38092 z m -0.18834,-0.76075 c 0.0742,-0.15497 0.0718,-0.32831 -0.006,-0.38531 -0.0775,-0.0572 -0.16789,0.0673 -0.2008,0.27633 -0.0713,0.45204 0.0187,0.49966 0.20641,0.10888 z m -3.75237,-3.13476 c -0.13175,-0.0656 -0.35455,-0.0837 -0.49516,-0.0402 -0.14067,0.0442 -0.0329,0.0978 0.23947,0.11996 0.27232,0.0221 0.38739,-0.0139 0.25569,-0.0797 z m -0.12156,-8.34472 c 0.0735,-0.26485 0.0541,-0.44051 -0.0447,-0.39061 -0.17223,0.088 -0.31773,0.85354 -0.16438,0.866 0.0418,0.003 0.13601,-0.21051 0.20922,-0.47538 z m -34.72463,-7.5121 c 0.009,-0.10885 -0.1401,-0.20937 -0.33073,-0.22321 -0.29622,-0.0241 -0.30597,0.006 -0.0654,0.19102 0.35416,0.27187 0.37649,0.27368 0.39611,0.0322 z m -19.05772,-6.87742 c -0.0606,-0.071 -0.11685,0.0425 -0.12503,0.25144 -0.01,0.23149 0.0341,0.28227 0.10983,0.12925 0.0688,-0.13823 0.0757,-0.30972 0.0146,-0.3809 z m 18.8996,0.6344 c -0.0439,-0.14064 -0.0978,-0.0329 -0.11995,0.23947 -0.0221,0.27236 0.0139,0.38741 0.0797,0.25571 0.0661,-0.13171 0.0842,-0.35452 0.0402,-0.49518 z m -4.15096,-2.67979 c 0.0696,-0.19435 0.0435,-0.21956 -0.078,-0.0764 -0.10007,0.11771 -0.40863,0.24158 -0.68548,0.275 -0.43347,0.0523 -0.42262,0.0629 0.0779,0.0764 0.32807,0.008 0.62679,-0.11108 0.68544,-0.27492 z m 47.65379,-1.90966 c 0.009,-0.10885 -0.073,-0.20533 -0.18199,-0.21418 -0.10884,-0.009 -0.20532,0.073 -0.21417,0.18199 -0.009,0.10894 0.073,0.20532 0.18198,0.21417 0.10885,0.009 0.20533,-0.073 0.21418,-0.18198 z m -50.22697,-13.39502 c -0.0606,-0.071 -0.11684,0.0425 -0.12502,0.25146 -0.01,0.23151 0.034,0.28228 0.11003,0.12926 0.0688,-0.13823 0.0758,-0.30969 0.0146,-0.38094 z m -9.09215,-0.6095 c -0.22425,-0.15634 -0.44659,-0.17441 -0.69317,-0.0563 -0.29613,0.14162 -0.23534,0.18415 0.3302,0.23011 0.56551,0.046 0.63241,0.0136 0.36297,-0.17378 z m -3.65654,-4.21858 c -0.0344,-0.19463 -0.0877,-0.0423 -0.11867,0.33922 -0.031,0.38125 -0.003,0.5406 0.0623,0.35396 0.0651,-0.18653 0.0905,-0.49851 0.0563,-0.69318 z m 2.83222,-2.95973 c -0.0344,-0.19463 -0.0877,-0.0423 -0.11866,0.33928 -0.031,0.38125 -0.003,0.54056 0.0623,0.35395 0.0651,-0.18656 0.0905,-0.49849 0.0563,-0.69323 z m 63.11095,5.17814 c -0.0495,-0.16847 -0.12484,-0.30913 -0.16766,-0.31261 -0.0427,-0.003 -0.0888,0.12741 -0.10208,0.29069 -0.0133,0.1634 0.0624,0.30415 0.16766,0.3127 0.10532,0.009 0.1515,-0.12232 0.10208,-0.29078 z m -0.2849,-3.25865 c -0.0604,-0.071 -0.11685,0.0425 -0.12524,0.2515 -0.01,0.23144 0.034,0.28228 0.10982,0.12927 0.0689,-0.13825 0.0758,-0.30969 0.0146,-0.38091 z m -41.99071,-4.3997 c -0.13824,-0.0688 -0.30972,-0.0755 -0.38094,-0.0146 -0.0712,0.0603 0.0421,0.11679 0.2515,0.12523 0.23145,0.01 0.28227,-0.0341 0.12946,-0.10981 z m 1.49779,0.12171 c -0.18654,-0.065 -0.49854,-0.0904 -0.69318,-0.0563 -0.19465,0.0345 -0.042,0.0877 0.33922,0.11867 0.38125,0.031 0.54051,0.003 0.35396,-0.0623 z m 15.41649,-8.52409 c -0.0603,-0.071 -0.11682,0.0425 -0.12523,0.2515 -0.01,0.23149 0.034,0.28229 0.10981,0.12926 0.0688,-0.13844 0.0759,-0.30976 0.0146,-0.381 z m 21.55833,-5.03069 c -0.0342,-0.19459 -0.0878,-0.0421 -0.11877,0.33926 -0.031,0.38124 -0.003,0.54048 0.0624,0.35397 0.0654,-0.18652 0.0908,-0.49855 0.0563,-0.69323 z m -10.43391,-17.58106 c -0.13822,-0.0689 -0.30973,-0.0755 -0.38093,-0.0146 -0.0712,0.0603 0.042,0.1168 0.2515,0.12523 0.23144,0.01 0.28221,-0.0337 0.12923,-0.10981 z m -21.81825,-7.35557 c -0.18656,-0.065 -0.49854,-0.0904 -0.69321,-0.0563 -0.19464,0.0346 -0.042,0.0877 0.33925,0.11867 0.38124,0.031 0.54051,0.003 0.35396,-0.0623 z m 3.06938,0.25543 c -0.13171,-0.0663 -0.35448,-0.0844 -0.49515,-0.0402 -0.14068,0.0441 -0.0329,0.0978 0.23946,0.11996 0.27231,0.0221 0.3874,-0.0139 0.25569,-0.0797 z m -8.59386,-8.93952 c -0.0585,-0.11431 -0.14566,-0.21122 -0.19366,-0.21512 -0.0481,-0.004 -0.0947,0.082 -0.1036,0.19096 -0.009,0.10896 0.0785,0.20578 0.19367,0.21514 0.11548,0.009 0.16189,-0.0765 0.10351,-0.19099 z"
       id="path3123"
       inkscape:connector-curvature="0"
       sodipodi:nodetypes="cccccccccccssccssssscssscsccccccccscssccscccssccscssscscsscccccccccscsccscsccccccccccssccscsccsssscccscssccssscccsccscccsscccccscccscccscccccccscssccccscccccccccscccccscccsccccccccccccsccccscccsccccccccccccccccccsssssccsccccccssscsccccccccccccscccsccccccccccccsscsccccccssssscccccccsccscccscccssscccccccccccccscccccccscccccccccscccsccsssc" />
    <path
       style="fill:#000000;fill-opacity:0.39215686"
       d="m 455.79582,678.84123 c -0.066,-0.069 -1.4961,-0.20098 -3.1777,-0.29324 -1.6815,-0.0923 -3.2459,-0.22302 -3.4764,-0.29052 -0.4633,-0.13562 -0.663,-0.70003 -1.0643,-3.00774 -0.1321,-0.75986 -0.2824,-1.42367 -0.3338,-1.47512 -0.051,-0.0515 -0.3332,-0.004 -0.6261,0.1088 -0.3885,0.14772 -0.8882,0.14157 -1.8484,-0.0227 -0.7238,-0.12383 -2.4936,-0.23473 -3.933,-0.24645 -2.3637,-0.0194 -2.7522,-0.0712 -4.016,-0.53685 -1.8884,-0.69569 -1.9507,-0.77198 -1.5671,-1.9185 0.2144,-0.64045 0.3446,-1.90431 0.423,-4.10322 l 0.1133,-3.17769 0.5607,-0.0555 c 0.6407,-0.0634 1.3454,-0.96534 1.4388,-1.84159 0.051,-0.47834 -0.056,-0.59048 -1.0973,-1.14193 -1,-0.52996 -1.1973,-0.72541 -1.4804,-1.4667 l -0.3266,-0.85525 0.5877,-1.19187 c 0.3233,-0.6555 0.8046,-2.04723 1.0696,-3.0927 0.4686,-1.84868 1.064,-3.27272 1.8108,-4.33147 0.8135,-1.15308 1.7825,-3.79364 2.1079,-5.74338 0.3498,-2.0965 0.9116,-4.15516 1.3011,-4.76776 0.4282,-0.67334 2.5478,-7.59517 3.2051,-10.46646 0.7941,-3.46901 0.8887,-3.70456 1.7675,-4.40055 1.0454,-0.82798 1.1069,-1.3562 0.901,-7.72773 -0.097,-2.99335 -0.2078,-5.53567 -0.2469,-5.6496 -0.039,-0.11387 -0.318,-0.25643 -0.6198,-0.3168 -0.386,-0.0772 -1.074,-0.68067 -2.3214,-2.03596 -0.975,-1.0595 -1.8201,-2.05248 -1.8778,-2.20667 -0.058,-0.15423 -0.8243,-1.28978 -1.7033,-2.52347 -0.9115,-1.27938 -1.7735,-2.72495 -2.0062,-3.36465 -0.2245,-0.61681 -0.6076,-1.51828 -0.8515,-2.00318 -0.5996,-1.19255 -0.572,-2.42782 0.1017,-4.56245 0.6889,-2.1824 0.7459,-2.28019 1.7855,-3.05759 1.2869,-0.96244 1.6048,-1.5703 1.3978,-2.67332 -0.092,-0.49187 -0.1488,-3.18488 -0.1255,-5.98451 l 0.042,-5.09026 -0.6543,-0.77991 c -0.647,-0.77141 -0.6544,-0.80005 -0.6691,-2.61395 -0.012,-1.48258 -0.1269,-2.21014 -0.5998,-3.79674 -0.3217,-1.07947 -0.6765,-2.50943 -0.7883,-3.1777 -0.1119,-0.66821 -0.3649,-1.71966 -0.5622,-2.33651 -0.1974,-0.61685 -0.7911,-3.93942 -1.3193,-7.3835 -0.7847,-5.11572 -0.9644,-6.74089 -0.9818,-8.87882 -0.028,-3.33883 0.3269,-9.36117 0.5688,-9.67025 0.1018,-0.13018 0.27,-0.48968 0.3737,-0.79893 0.1037,-0.30921 0.8665,-1.53433 1.6951,-2.72251 1.4655,-2.10133 2.781,-3.3722 5.6067,-5.41627 0.3373,-0.24402 0.8687,-0.84172 1.1809,-1.32818 0.6008,-0.93625 0.711,-0.98254 3.2527,-1.36644 1.8147,-0.27409 1.7757,-0.25074 1.7757,-1.06209 0,-0.62831 -0.1469,-0.91227 -0.935,-1.80764 -0.5142,-0.58428 -1.1907,-1.60309 -1.5032,-2.26405 l -0.5683,-1.20177 0.069,-3.2844 c 0.1206,-5.71107 0.6542,-6.89748 3.9076,-8.68861 2.2105,-1.21699 3.8357,-1.60744 6.6675,-1.60186 1.6473,0.004 1.8677,0.0473 2.5705,0.51402 1.7771,1.18043 3.4828,2.79026 4.2893,4.04838 0.7572,1.18113 0.83,1.39816 0.83,2.47198 0,1.11882 0.027,1.19145 0.5608,1.46706 0.6027,0.31165 0.7315,0.8407 0.2933,1.20433 -0.42,0.34853 -0.6859,1.93707 -0.7998,4.77725 -0.082,2.0342 -0.1831,2.77244 -0.456,3.31535 -0.3879,0.77195 -1.3572,1.36932 -2.5251,1.55615 -0.395,0.0632 -0.9207,0.27896 -1.1683,0.47949 l -0.4502,0.36462 0.5621,0.60026 c 1.2754,1.36186 1.4981,2.1586 0.7417,2.65418 -0.2407,0.15775 -0.7042,0.61838 -1.0298,1.02356 l -0.592,0.73671 0.8398,0.49216 c 0.4619,0.27067 1.1145,0.84061 1.4503,1.26655 1.1743,1.48935 2.9145,3.33617 3.661,3.88515 0.7239,0.5323 0.7718,0.63418 1.2455,2.65084 0.271,1.15349 0.6569,3.38817 0.8577,4.96603 0.2007,1.57777 0.6521,4.01715 1.003,5.42075 0.3509,1.40361 0.6954,2.94771 0.7655,3.43138 0.097,0.67209 0.4086,1.2653 1.3205,2.51723 1.3592,1.86565 2.0402,2.46983 2.9505,2.61754 0.5407,0.0877 0.6577,0.0408 0.7687,-0.30891 0.072,-0.22681 0.4802,-0.76886 0.9072,-1.20453 0.8959,-0.91405 3.234,-5.002 5.7816,-10.10836 5.546,-11.11619 12.4846,-28.02779 15.8755,-38.69308 0.8171,-2.57022 2.3968,-7.49139 3.5103,-10.93592 2.5283,-7.82041 4.1055,-13.15605 5.909,-19.99048 0.7746,-2.93517 1.7785,-6.59842 2.231,-8.14055 2.2202,-7.5676 4.0034,-15.27384 5.9567,-25.74193 2.6369,-14.132 5.2037,-31.76991 6.5635,-45.1019 0.262,-2.5702 0.6819,-6.14662 0.9328,-7.94762 1.6471,-11.82016 3.1446,-28.11525 3.9162,-42.61508 0.3111,-5.84287 0.3083,-5.76518 1.7133,-49.25424 1.1688,-36.18311 1.1299,-30.06779 0.4441,-69.72231 -0.674,-38.97149 -0.6635,-37.13194 -0.222,-39.16039 1.9454,-8.93927 3.4084,-20.25082 3.9647,-30.65538 0.1072,-2.00475 0.4003,-6.16846 0.6514,-9.2527 6.75807,-87.086881 4.42732,-63.322642 1.3094,4.01884 -0.6383,13.99438 -2.2067,28.01655 -3.9657,35.45603 -0.6343,2.68261 -0.6294,2.21775 -0.242,22.49014 0.3538,18.51207 0.3793,66.56156 0.042,78.88154 -0.3241,11.83294 -0.5655,19.43405 -0.8908,28.03847 -0.1535,4.0609 -0.4035,11.04247 -0.5556,15.51461 -0.6674,19.62363 -1.629,32.76696 -3.7333,51.02999 -0.3494,3.03285 -0.7296,6.69186 -0.8448,8.13116 -2.3937,29.90543 -9.973,68.8199 -19.4412,99.81695 -0.5024,1.64491 -1.0849,3.7811 -1.2944,4.74705 -1.9841,9.1476 -10.6455,30.06711 -23.3559,56.41031 -2.1589,4.47452 -2.4512,5.19415 -2.4512,6.03348 0,0.81952 -0.1857,1.30569 -1.3247,3.47098 -0.9379,1.78275 -1.2516,2.5405 -1.0748,2.59522 0.1374,0.0426 0.5245,0.16492 0.8602,0.27199 0.3356,0.10703 1.0245,0.54394 1.5308,0.97087 0.7653,0.64527 0.9542,0.93315 1.1201,1.70691 0.2429,1.13228 0.8906,2.27455 1.777,3.13368 0.5719,0.55421 0.6629,0.76167 0.6629,1.51068 0,0.47751 -0.1253,1.28115 -0.2785,1.78585 -0.153,0.50466 -0.2792,1.27842 -0.2803,1.71946 -0.01,0.93835 -0.5052,2.01063 -1.4153,3.01806 l -0.6494,0.7188 0.4735,7.45067 c 0.7596,11.94958 1.0579,14.72016 2.3291,21.63184 0.305,1.65864 0.8981,5.07651 1.3178,7.59532 2.2558,13.53577 5.44,24.38137 8.7153,29.68524 1.8068,2.92588 5.8103,6.26549 8.4096,7.01507 l 0.9575,0.27616 1.0287,-0.98857 c 0.566,-0.54373 1.8174,-1.46822 2.781,-2.05445 0.9637,-0.58619 2.1651,-1.38855 2.6699,-1.78296 1.8128,-1.41653 4.6034,-2.48093 8.3873,-3.19912 1.6387,-0.31102 3.0106,-0.41281 6.2743,-0.46542 l 4.177,-0.0673 0.5557,-0.76712 c 0.347,-0.47903 0.8819,-0.91137 1.4242,-1.15126 0.7761,-0.34332 1.1005,-0.37171 3.0506,-0.26687 1.8459,0.0993 2.2195,0.0725 2.424,-0.174 1.0247,-1.23477 4.9303,-1.75371 8.3348,-1.10752 2.0336,0.38603 5.7084,2.21261 6.7714,3.36585 0.6157,0.66789 0.7687,0.97355 0.7687,1.53552 0,0.61978 -0.1418,0.83739 -1.2151,1.8642 l -1.2152,1.16252 1.1684,0.65271 c 1.9697,1.1003 5.4213,2.67779 6.3088,2.8833 1.8972,0.43927 2.493,-0.11041 5.5271,-5.10041 0.4981,-0.81915 1.2992,-1.89766 1.7802,-2.39672 0.755,-0.78329 0.9604,-0.89907 1.5034,-0.84712 0.5221,0.0499 0.692,0.18712 1.0004,0.80785 1.0269,2.06741 0.2627,10.88764 -1.2203,14.08416 -0.7518,1.62035 -1.4754,2.47969 -2.5327,3.00779 -2.3152,1.15621 -6.8449,0.38343 -9.139,-1.55916 -2.2114,-1.87267 -3.1238,-2.20804 -3.4822,-1.27991 -0.1873,0.48522 -0.095,2.33251 0.149,2.96718 0.059,0.15308 0.7157,0.68918 1.4598,1.19132 3.7741,2.54674 5.702,4.60268 5.702,6.08077 0,1.53531 -1.1905,2.35574 -2.8721,1.97944 -3.5758,-0.80025 -6.197,-3.81121 -6.9766,-8.01408 -0.56,-3.01851 -0.9256,-3.439 -3.28,-3.77148 -1.7451,-0.24641 -2.2576,-0.38381 -4.2958,-1.15151 -1.4431,-0.54353 -2.3894,-0.69194 -2.3894,-0.37469 0,0.0928 0.5465,0.9129 1.2144,1.82249 2.2635,3.08259 2.5439,3.97932 1.9729,6.31014 l -0.2706,1.1048 0.7565,0.67098 c 0.4161,0.36904 2.0693,1.4551 3.6738,2.41342 3.2917,1.96591 3.8685,2.37704 3.8685,2.7573 0,0.36541 -0.3486,0.33475 -1.2151,-0.10703 -1.4645,-0.74666 -3.0603,-0.52017 -8.5984,1.22024 -2.1101,0.66311 -2.3873,0.70507 -4.6731,0.70734 -2.6531,0.004 -3.5134,-0.12494 -7.5704,-1.12238 l -2.7104,-0.66636 -6.4488,-0.0359 c -6.803,-0.0379 -8.124,-0.16508 -10.5403,-1.01435 -1.0619,-0.37321 -2.3574,-1.19883 -2.3574,-1.5023 0,-0.2977 -1.1453,-1.58615 -1.7213,-1.93642 -1.3061,-0.79431 -2.4591,-0.65794 -7.6249,0.90209 -3.915,1.18232 -6.8169,0.58376 -7.2053,-1.48622 -0.5993,-3.19503 4.3522,-10.66954 8.0484,-12.14924 0.6739,-0.26972 1.8113,-0.59093 2.5276,-0.71377 0.7163,-0.12283 1.3024,-0.27042 1.3024,-0.32798 0,-0.0575 -0.4416,-0.44953 -0.9814,-0.87113 -2.8084,-2.19376 -6.0065,-5.53151 -7.5591,-7.88899 -1.8583,-2.82186 -2.8651,-5.34145 -4.1752,-10.44933 -0.4158,-1.62093 -1.0111,-3.74433 -1.323,-4.71871 -3.1882,-9.95973 -5.7394,-28.04681 -6.7108,-47.57612 -0.2467,-4.95966 -0.4176,-5.46263 -2.0655,-6.0789 -0.694,-0.25954 -1.3094,-0.65907 -1.7206,-1.11714 -0.5721,-0.63736 -2.2134,-1.62391 -3.2225,-1.93699 -0.3616,-0.11219 -0.3699,-0.0564 -0.2537,1.70469 0.066,1.00135 0.2124,3.50292 0.3251,5.55911 0.1127,2.05614 0.311,5.08432 0.4406,6.72921 0.2541,3.22322 0.2866,13.3586 0.062,19.34657 -0.098,2.62208 -0.2355,4.0122 -0.4887,4.95344 -0.1937,0.71963 -0.5236,2.99079 -0.7332,5.04694 -0.2614,2.56461 -0.5226,4.17976 -0.832,5.14389 -0.6046,1.88426 -1.7157,6.6083 -2.0434,8.68842 -0.1458,0.92527 -0.3977,2.0608 -0.56,2.52346 -0.1621,0.46262 -0.474,1.64024 -0.6929,2.61693 -0.219,0.97668 -0.73,2.62946 -1.1357,3.67287 -0.4057,1.0434 -1.0698,3.02012 -1.4759,4.3927 -0.7004,2.36742 -0.7382,2.62514 -0.7375,5.01901 0,2.44911 0.017,2.55325 0.5581,3.53472 0.4666,0.84643 0.5574,1.22071 0.5574,2.29724 0,0.88034 -0.1096,1.50482 -0.3476,1.97953 -0.4974,0.99277 -0.628,2.14713 -0.3906,3.45604 0.1716,0.94623 0.3709,1.33656 1.1807,2.31217 1.9827,2.38859 3.5754,3.14267 5.4479,2.57913 1.5322,-0.46113 3.0444,-0.35575 4.4705,0.31156 1.0927,0.51139 1.3009,0.69525 1.7169,1.51617 0.4349,0.85815 0.4558,1.00759 0.2571,1.83577 -0.2632,1.09721 -1.3603,2.2068 -3.7623,3.80528 -2.3006,1.53111 -4.6596,2.08276 -10.068,2.35451 -1.7991,0.0904 -4.0281,0.22086 -4.9534,0.28994 -0.9253,0.069 -1.7365,0.0691 -1.8027,8e-5 z m 97.313,-7.75616 c -0.8913,-1.69616 -1.7381,-2.55215 -2.8481,-2.87914 -0.4856,-0.14305 -0.9089,-0.1933 -0.9406,-0.11165 -0.08,0.20663 0.6478,1.60537 1.3398,2.57417 0.6669,0.9337 1.8487,1.71022 2.6066,1.71274 l 0.5243,0.004 -0.682,-1.29795 z m -60.9296,-0.76717 c 1.2306,-0.38389 5.516,-1.1126 6.5429,-1.1126 0.5176,0 0.6656,-0.0839 0.7421,-0.42061 0.3904,-1.71916 0.4638,-2.25828 0.4679,-3.43805 0.01,-1.41174 -0.091,-1.56209 -0.9926,-1.56209 -0.3489,0 -2.0274,-0.80178 -3.9782,-1.90022 l -0.5529,-0.3114 -1.5819,1.78003 c -0.87,0.979 -2.0655,2.45353 -2.6566,3.27673 -1.1514,1.60331 -1.2781,2.11671 -0.8779,3.55771 0.1932,0.69574 0.2016,0.70081 0.9803,0.59106 0.432,-0.0609 1.2901,-0.26816 1.9069,-0.46056 z m 46.1701,-4.29029 c 0.064,-0.10282 0.031,-0.18695 -0.072,-0.18695 -0.1028,0 -0.2389,0.0841 -0.3025,0.18695 -0.064,0.10278 -0.031,0.18691 0.072,0.18691 0.1028,0 0.2389,-0.0841 0.3024,-0.18691 z m 25.2321,-10.21015 c 0.1931,-0.4622 0.2828,-1.31552 0.2828,-2.68888 0,-1.93006 -0.019,-2.02409 -0.459,-2.31262 -0.4512,-0.29568 -0.4692,-0.28615 -1.0471,0.55388 -0.3234,0.47008 -0.788,1.34675 -1.0324,1.94821 -0.4106,1.01052 -0.4238,1.1426 -0.174,1.74034 0.2724,0.65192 1.2216,1.39197 1.8222,1.42065 0.2038,0.01 0.4299,-0.23651 0.6075,-0.66158 z m -52.8981,-5.11543 c 0.066,-0.10595 -0.01,-0.13731 -0.1759,-0.0734 -0.3238,0.12423 -0.383,0.25825 -0.1142,0.25825 0.097,0 0.2273,-0.0831 0.2901,-0.18481 z m -32.7173,-79.02385 c -0.4264,-1.02207 -0.7213,-1.40906 -1.3516,-1.77388 l -0.5617,-0.32522 0.3527,0.69186 c 0.194,0.38051 0.3527,0.78886 0.3527,0.90741 0,0.16442 1.1733,1.12613 1.4512,1.18955 0.027,0.006 -0.082,-0.30418 -0.2433,-0.68972 z m -8.8004,-21.08529 c 0.064,-0.16636 0.033,-0.24138 -0.073,-0.1759 -0.1016,0.0628 -0.1848,0.19335 -0.1848,0.29011 0,0.26886 0.134,0.20965 0.2583,-0.11421 z m 40.2155,-73.32149 c -0.058,-0.0576 -0.2083,-1.6e-4 -0.3352,0.12758 -0.1831,0.18464 -0.1617,0.2061 0.1047,0.10468 0.1844,-0.0702 0.2881,-0.17474 0.2305,-0.23226 z"
       id="path4094"
       inkscape:connector-curvature="0"
       sodipodi:nodetypes="ccccccscccscccccccscccsccccccccccccccccccccccccccssccccscccscscccscccsccccccscccccsccccscccsscsccsscsscsccssccccccscccccccscccccsscssccccsccccccccccccccsccccssccccssscscscscscccscccssscscsccccccccscccscccsccccsccccscccccccsccsccccccccscscccscsccccccsccccccsccccsccccsc" />
  </g>
</svg>
